<svg width="36" height="36" viewBox="0 0 36 36" fill="none" xmlns="http://www.w3.org/2000/svg">
<g clip-path="url(#clip0_2274_4107)">
<path d="M35.5 18C35.5 8.33508 27.6649 0.5 18 0.5C8.33508 0.5 0.5 8.33508 0.5 18C0.5 26.7347 6.89953 33.9746 15.2656 35.2874V23.0586H10.8223V18H15.2656V14.1445C15.2656 9.75859 17.8783 7.33594 21.8757 7.33594C23.7903 7.33594 25.793 7.67773 25.793 7.67773V11.9844H23.5863C21.4124 11.9844 20.7344 13.3334 20.7344 14.7174V18H25.5879L24.812 23.0586H20.7344V35.2874C29.1005 33.9746 35.5 26.7348 35.5 18Z" fill="#1877F2"/>
<path d="M24.812 23.0586L25.5879 18H20.7344V14.7174C20.7344 13.3332 21.4124 11.9844 23.5863 11.9844H25.793V7.67773C25.793 7.67773 23.7903 7.33594 21.8756 7.33594C17.8783 7.33594 15.2656 9.75859 15.2656 14.1445V18H10.8223V23.0586H15.2656V35.2874C16.1702 35.4292 17.0844 35.5002 18 35.5C18.9156 35.5003 19.8298 35.4292 20.7344 35.2874V23.0586H24.812Z" fill="white"/>
</g>
<defs>
<clipPath id="clip0_2274_4107">
<rect width="35" height="35" fill="white" transform="translate(0.5 0.5)"/>
</clipPath>
</defs>
</svg>
