<svg width="90" height="91" viewBox="0 0 90 91" fill="none" xmlns="http://www.w3.org/2000/svg">
<path d="M49.6261 0.5C54.6883 0.5135 57.2577 0.540499 59.4761 0.603498L60.349 0.634997C61.357 0.670996 62.3514 0.715995 63.5528 0.769993C68.3406 0.994988 71.6074 1.75097 74.4738 2.86245C77.4436 4.00542 79.9455 5.55338 82.4474 8.05082C84.7355 10.3003 86.506 13.0214 87.6356 16.0246C88.7471 18.8911 89.503 22.158 89.728 26.9504C89.782 28.1474 89.827 29.1418 89.863 30.1543L89.89 31.0273C89.9575 33.2412 89.9845 35.8107 89.9935 40.8731L89.998 44.23V50.1248C90.009 53.4071 89.9745 56.6893 89.8945 59.9706L89.8675 60.8436C89.8315 61.8561 89.7865 62.8505 89.7325 64.0475C89.5075 68.8399 88.7426 72.1023 87.6356 74.9733C86.5092 77.9782 84.7383 80.6999 82.4474 82.9471C80.1973 85.2345 77.4765 87.0049 74.4738 88.1355C71.6074 89.2469 68.3406 90.0029 63.5528 90.2279C62.4851 90.2782 61.4172 90.3232 60.349 90.3629L59.4761 90.3899C57.2577 90.4529 54.6883 90.4844 49.6261 90.4934L46.2692 90.4979H40.379C37.0954 90.5092 33.8117 90.4747 30.529 90.3944L29.6561 90.3674C28.5879 90.327 27.5199 90.2804 26.4522 90.2279C21.6645 90.0029 18.3977 89.2469 15.5268 88.1355C12.524 87.0077 9.80407 85.2368 7.55771 82.9471C5.26753 80.6984 3.49543 77.9772 2.36498 74.9733C1.25353 72.1068 0.497571 68.8399 0.272582 64.0475C0.22245 62.9798 0.177451 61.9118 0.137589 60.8436L0.115091 59.9706C0.0321695 56.6894 -0.00533261 53.4071 0.00259637 50.1248V40.8731C-0.00996233 37.5908 0.0230395 34.3086 0.101592 31.0273L0.13309 30.1543C0.169088 29.1418 0.214086 28.1474 0.268083 26.9504C0.493071 22.158 1.24903 18.8956 2.36048 16.0246C3.49043 13.0183 5.26607 10.2964 7.56221 8.05082C9.80801 5.76251 12.5261 3.99186 15.5268 2.86245C18.3977 1.75097 21.66 0.994988 26.4522 0.769993C27.6492 0.715995 28.6481 0.670996 29.6561 0.634997L30.529 0.607997C33.8102 0.528047 37.0924 0.493544 40.3745 0.5045L49.6261 0.5ZM45.0003 22.9995C39.0332 22.9995 33.3106 25.3699 29.0912 29.5894C24.8719 33.8089 22.5014 39.5317 22.5014 45.499C22.5014 51.4662 24.8719 57.189 29.0912 61.4085C33.3106 65.628 39.0332 67.9984 45.0003 67.9984C50.9674 67.9984 56.69 65.628 60.9094 61.4085C65.1287 57.189 67.4991 51.4662 67.4991 45.499C67.4991 39.5317 65.1287 33.8089 60.9094 29.5894C56.69 25.3699 50.9674 22.9995 45.0003 22.9995ZM45.0003 31.9993C46.773 31.999 48.5285 32.3479 50.1664 33.026C51.8044 33.7042 53.2927 34.6983 54.5464 35.9516C55.8001 37.205 56.7947 38.693 57.4734 40.3308C58.1521 41.9685 58.5016 43.7239 58.5019 45.4967C58.5021 47.2695 58.1533 49.025 57.4751 50.663C56.797 52.3009 55.8029 53.7893 54.5496 55.0431C53.2963 56.2968 51.8083 57.2915 50.1706 57.9702C48.5329 58.6489 46.7775 58.9983 45.0048 58.9986C41.4246 58.9986 37.991 57.5764 35.4593 55.0447C32.9277 52.513 31.5055 49.0793 31.5055 45.499C31.5055 41.9186 32.9277 38.4849 35.4593 35.9532C37.991 33.4215 41.4246 31.9993 45.0048 31.9993M68.6286 16.2496C67.1368 16.2496 65.7062 16.8423 64.6513 17.8971C63.5965 18.952 63.0039 20.3827 63.0039 21.8745C63.0039 23.3663 63.5965 24.797 64.6513 25.8519C65.7062 26.9068 67.1368 27.4994 68.6286 27.4994C70.1203 27.4994 71.551 26.9068 72.6059 25.8519C73.6607 24.797 74.2533 23.3663 74.2533 21.8745C74.2533 20.3827 73.6607 18.952 72.6059 17.8971C71.551 16.8423 70.1203 16.2496 68.6286 16.2496Z" fill="white"/>
</svg>
