<svg width="36" height="36" viewBox="0 0 36 36" fill="none" xmlns="http://www.w3.org/2000/svg">
<path d="M27.2969 0.5H8.70312C4.17266 0.5 0.5 4.17266 0.5 8.70312V27.2969C0.5 31.8273 4.17266 35.5 8.70312 35.5H27.2969C31.8273 35.5 35.5 31.8273 35.5 27.2969V8.70312C35.5 4.17266 31.8273 0.5 27.2969 0.5Z" fill="url(#paint0_radial_2274_4103)"/>
<path d="M27.2969 0.5H8.70312C4.17266 0.5 0.5 4.17266 0.5 8.70312V27.2969C0.5 31.8273 4.17266 35.5 8.70312 35.5H27.2969C31.8273 35.5 35.5 31.8273 35.5 27.2969V8.70312C35.5 4.17266 31.8273 0.5 27.2969 0.5Z" fill="url(#paint1_radial_2274_4103)"/>
<path d="M18.0012 4.32812C14.2882 4.32812 13.8221 4.34439 12.3639 4.4107C10.9084 4.47742 9.91486 4.70779 9.04561 5.0459C8.14627 5.39508 7.38352 5.86225 6.62363 6.6224C5.86307 7.38242 5.3959 8.14518 5.04563 9.0441C4.70656 9.91363 4.47592 10.9076 4.41043 12.3624C4.34521 13.8208 4.32812 14.287 4.32812 18.0001C4.32812 21.7133 4.34453 22.1779 4.4107 23.6361C4.4777 25.0916 4.70807 26.0851 5.0459 26.9544C5.39535 27.8537 5.86252 28.6165 6.62268 29.3764C7.38242 30.1369 8.14518 30.6052 9.04383 30.9544C9.91377 31.2925 10.9074 31.5229 12.3627 31.5896C13.8211 31.6559 14.2867 31.6721 17.9996 31.6721C21.713 31.6721 22.1776 31.6559 23.6358 31.5896C25.0913 31.5229 26.086 31.2925 26.9559 30.9544C27.8548 30.6052 28.6165 30.1369 29.3761 29.3764C30.1367 28.6165 30.6037 27.8537 30.9541 26.9548C31.2902 26.0851 31.5209 25.0913 31.5893 23.6364C31.6548 22.1781 31.6719 21.7133 31.6719 18.0001C31.6719 14.287 31.6548 13.8211 31.5893 12.3627C31.5209 10.9072 31.2902 9.91377 30.9541 9.04451C30.6037 8.14518 30.1367 7.38242 29.3761 6.6224C28.6157 5.86197 27.8551 5.3948 26.9551 5.04604C26.0835 4.70779 25.0894 4.47729 23.6339 4.4107C22.1755 4.34439 21.7112 4.32812 17.997 4.32812H18.0012ZM16.7747 6.79193C17.1388 6.79139 17.545 6.79193 18.0012 6.79193C21.6518 6.79193 22.0843 6.80506 23.5259 6.87055C24.8589 6.93152 25.5824 7.15424 26.0644 7.34141C26.7024 7.58914 27.1573 7.88541 27.6355 8.36406C28.114 8.84258 28.4102 9.29826 28.6586 9.93633C28.8458 10.4176 29.0688 11.1411 29.1295 12.4741C29.1949 13.9154 29.2092 14.3482 29.2092 17.997C29.2092 21.6457 29.1949 22.0787 29.1295 23.5199C29.0685 24.8529 28.8458 25.5764 28.6586 26.0578C28.4109 26.6959 28.114 27.1502 27.6355 27.6284C27.157 28.1069 26.7027 28.4031 26.0644 28.6509C25.583 28.8389 24.8589 29.0611 23.5259 29.1221C22.0846 29.1876 21.6518 29.2018 18.0012 29.2018C14.3506 29.2018 13.9179 29.1876 12.4767 29.1221C11.1437 29.0605 10.4202 28.8378 9.93783 28.6507C9.2999 28.4028 8.84408 28.1067 8.36557 27.6281C7.88705 27.1496 7.59092 26.695 7.3425 26.0567C7.15533 25.5753 6.93234 24.8518 6.87164 23.5188C6.80615 22.0775 6.79303 21.6446 6.79303 17.9936C6.79303 14.3426 6.80615 13.912 6.87164 12.4707C6.93262 11.1377 7.15533 10.4142 7.3425 9.93223C7.59037 9.29416 7.88705 8.83848 8.3657 8.35996C8.84422 7.88145 9.2999 7.58518 9.93797 7.33689C10.4199 7.14891 11.1437 6.92674 12.4767 6.86549C13.7379 6.80848 14.2267 6.79139 16.7747 6.78852V6.79193ZM25.2993 9.06201C24.3935 9.06201 23.6587 9.79619 23.6587 10.7021C23.6587 11.6079 24.3935 12.3427 25.2993 12.3427C26.205 12.3427 26.9399 11.6079 26.9399 10.7021C26.9399 9.79633 26.205 9.06146 25.2993 9.06146V9.06201ZM18.0012 10.9789C14.1239 10.9789 10.9802 14.1227 10.9802 18.0001C10.9802 21.8776 14.1239 25.0198 18.0012 25.0198C21.8787 25.0198 25.0213 21.8776 25.0213 18.0001C25.0213 14.1228 21.8784 10.9789 18.001 10.9789H18.0012ZM18.0012 13.4428C20.5181 13.4428 22.5586 15.483 22.5586 18.0001C22.5586 20.517 20.5181 22.5575 18.0012 22.5575C15.4842 22.5575 13.444 20.517 13.444 18.0001C13.444 15.483 15.4842 13.4428 18.0012 13.4428Z" fill="white"/>
<defs>
<radialGradient id="paint0_radial_2274_4103" cx="0" cy="0" r="1" gradientUnits="userSpaceOnUse" gradientTransform="translate(9.79687 38.1957) rotate(-90) scale(34.6876 32.2622)">
<stop stop-color="#FFDD55"/>
<stop offset="0.1" stop-color="#FFDD55"/>
<stop offset="0.5" stop-color="#FF543E"/>
<stop offset="1" stop-color="#C837AB"/>
</radialGradient>
<radialGradient id="paint1_radial_2274_4103" cx="0" cy="0" r="1" gradientUnits="userSpaceOnUse" gradientTransform="translate(-5.36264 3.02123) rotate(78.681) scale(15.5055 63.9144)">
<stop stop-color="#3771C8"/>
<stop offset="0.128" stop-color="#3771C8"/>
<stop offset="1" stop-color="#6600FF" stop-opacity="0"/>
</radialGradient>
</defs>
</svg>
