<svg width="25" height="26" viewBox="0 0 25 26" fill="none" xmlns="http://www.w3.org/2000/svg">
<path d="M0 3.625C0 1.90137 1.44657 0.5 3.22581 0.5H11.2903V6.75C11.2903 7.61426 12.0111 8.3125 12.9032 8.3125H19.3548V15.3438H8.87097C7.09173 15.3438 5.64516 16.7451 5.64516 18.4688V25.5H3.22581C1.44657 25.5 0 24.0986 0 22.375V3.625ZM19.3548 6.75H12.9032V0.5L19.3548 6.75ZM8.87097 17.6875H10.4839C12.0413 17.6875 13.3065 18.9131 13.3065 20.4219C13.3065 21.9307 12.0413 23.1562 10.4839 23.1562H9.67742V24.7188C9.67742 25.1484 9.31452 25.5 8.87097 25.5C8.42742 25.5 8.06452 25.1484 8.06452 24.7188V18.4688C8.06452 18.0391 8.42742 17.6875 8.87097 17.6875ZM10.4839 21.5938C11.1542 21.5938 11.6935 21.0713 11.6935 20.4219C11.6935 19.7725 11.1542 19.25 10.4839 19.25H9.67742V21.5938H10.4839ZM15.3226 17.6875H16.9355C18.2712 17.6875 19.3548 18.7373 19.3548 20.0312V23.1562C19.3548 24.4502 18.2712 25.5 16.9355 25.5H15.3226C14.879 25.5 14.5161 25.1484 14.5161 24.7188V18.4688C14.5161 18.0391 14.879 17.6875 15.3226 17.6875ZM16.9355 23.9375C17.379 23.9375 17.7419 23.5859 17.7419 23.1562V20.0312C17.7419 19.6016 17.379 19.25 16.9355 19.25H16.129V23.9375H16.9355ZM20.9677 18.4688C20.9677 18.0391 21.3306 17.6875 21.7742 17.6875H24.1935C24.6371 17.6875 25 18.0391 25 18.4688C25 18.8984 24.6371 19.25 24.1935 19.25H22.5806V20.8125H24.1935C24.6371 20.8125 25 21.1641 25 21.5938C25 22.0234 24.6371 22.375 24.1935 22.375H22.5806V24.7188C22.5806 25.1484 22.2177 25.5 21.7742 25.5C21.3306 25.5 20.9677 25.1484 20.9677 24.7188V21.5938V18.4688Z" fill="#A10000"/>
</svg>
