<svg width="90" height="91" viewBox="0 0 90 91" fill="none" xmlns="http://www.w3.org/2000/svg">
<path fill-rule="evenodd" clip-rule="evenodd" d="M45 0.5C20.1465 0.5 0 20.6465 0 45.5C0 54.005 2.3625 61.97 6.471 68.756L2.457 82.4C2.22653 83.1834 2.21137 84.0144 2.4131 84.8056C2.61483 85.5969 3.02601 86.3192 3.60342 86.8966C4.18082 87.474 4.90312 87.8852 5.69438 88.0869C6.48563 88.2886 7.31663 88.2735 8.1 88.043L21.744 84.029C28.758 88.2729 36.802 90.5111 45 90.5C69.8535 90.5 90 70.3535 90 45.5C90 20.6465 69.8535 0.5 45 0.5ZM34.821 55.6835C43.9245 64.7825 52.614 65.984 55.683 66.0965C60.3495 66.2675 64.8945 62.7035 66.663 58.568C66.8863 58.0535 66.9673 57.4886 66.8977 56.9321C66.828 56.3756 66.6102 55.8481 66.267 55.4045C63.801 52.2545 60.4665 49.991 57.2085 47.741C56.5283 47.2707 55.6923 47.082 54.876 47.2145C54.0597 47.3471 53.3265 47.7906 52.83 48.452L50.13 52.5695C49.9881 52.7909 49.7668 52.9496 49.5117 53.0132C49.2565 53.0767 48.9867 53.0404 48.7575 52.9115C46.926 51.863 44.2575 50.081 42.3405 48.164C40.4235 46.247 38.7495 43.7 37.809 41.9855C37.6924 41.7677 37.6587 41.515 37.7141 41.2742C37.7696 41.0334 37.9104 40.8209 38.1105 40.676L42.2685 37.589C42.8619 37.073 43.2448 36.3569 43.3444 35.5769C43.444 34.7969 43.2532 34.0075 42.8085 33.359C40.7925 30.407 38.4435 26.654 35.037 24.1655C34.5974 23.8469 34.0824 23.6483 33.5427 23.5891C33.003 23.5299 32.4572 23.6123 31.959 23.828C27.819 25.601 24.237 30.146 24.408 34.8215C24.5205 37.8905 25.722 46.58 34.821 55.6835Z" fill="white"/>
</svg>
