<svg width="36" height="36" viewBox="0 0 36 36" fill="none" xmlns="http://www.w3.org/2000/svg">
<g clip-path="url(#clip0_4237_2633)">
<path d="M1.24727 17.7889C1.24645 20.7525 2.02082 23.6463 3.49328 26.1969L1.10645 34.9117L10.0249 32.5732C12.4916 33.9161 15.2554 34.6197 18.0639 34.6199H18.0713C27.3429 34.6199 34.8902 27.0754 34.8942 17.8021C34.8959 13.3086 33.1476 9.08317 29.9711 5.90419C26.7951 2.72548 22.5712 0.973975 18.0706 0.971924C8.79797 0.971924 1.25123 8.51606 1.2474 17.7889" fill="url(#paint0_linear_4237_2633)"/>
<path d="M0.646289 17.7834C0.645332 20.8537 1.44746 23.851 2.97242 26.493L0.5 35.5201L9.73822 33.0979C12.2837 34.4857 15.1496 35.2174 18.0658 35.2185H18.0733C27.6775 35.2185 35.4959 27.4026 35.5 17.7974C35.5016 13.1424 33.6904 8.76506 30.4004 5.47219C27.11 2.17973 22.735 0.365195 18.0733 0.363281C8.46742 0.363281 0.650117 8.17813 0.646289 17.7834ZM6.14799 26.038L5.80305 25.4904C4.35301 23.1848 3.58766 20.5204 3.58875 17.7845C3.59176 9.80084 10.0892 3.30547 18.0788 3.30547C21.9479 3.30711 25.5841 4.81539 28.319 7.55195C31.0538 10.2888 32.5586 13.9269 32.5577 17.7963C32.5541 25.78 26.0566 32.2762 18.0733 32.2762H18.0675C15.4681 32.2748 12.9187 31.5767 10.6954 30.2575L10.1663 29.9438L4.68414 31.3811L6.14799 26.038Z" fill="url(#paint1_linear_4237_2633)"/>
<path d="M13.7182 10.5007C13.392 9.7757 13.0487 9.76107 12.7384 9.74835C12.4844 9.73741 12.194 9.73823 11.9039 9.73823C11.6135 9.73823 11.1417 9.84747 10.7429 10.2829C10.3437 10.7188 9.21875 11.7721 9.21875 13.9143C9.21875 16.0567 10.7791 18.127 10.9966 18.4178C11.2144 18.7081 14.009 23.245 18.4348 24.9903C22.1131 26.4408 22.8616 26.1523 23.6599 26.0795C24.4584 26.0071 26.2363 25.0265 26.599 24.0098C26.962 22.9931 26.962 22.1217 26.8531 21.9396C26.7443 21.7581 26.4539 21.6492 26.0185 21.4315C25.5829 21.2137 23.4421 20.1603 23.0431 20.015C22.6438 19.8698 22.3536 19.7973 22.0632 20.2333C21.7728 20.6686 20.939 21.6492 20.6848 21.9396C20.4309 22.2306 20.1768 22.2669 19.7414 22.0491C19.3057 21.8306 17.9034 21.3714 16.2397 19.8881C14.9452 18.7339 14.0713 17.3086 13.8173 16.8726C13.5633 16.4373 13.7901 16.2013 14.0084 15.9844C14.2041 15.7893 14.444 15.4759 14.6619 15.2218C14.879 14.9675 14.9515 14.786 15.0967 14.4956C15.242 14.205 15.1693 13.9507 15.0606 13.7329C14.9515 13.5151 14.1054 11.3616 13.7182 10.5007Z" fill="white"/>
</g>
<defs>
<linearGradient id="paint0_linear_4237_2633" x1="1690.49" y1="3394.95" x2="1690.49" y2="0.971924" gradientUnits="userSpaceOnUse">
<stop stop-color="#1FAF38"/>
<stop offset="1" stop-color="#60D669"/>
</linearGradient>
<linearGradient id="paint1_linear_4237_2633" x1="1750.5" y1="3516.05" x2="1750.5" y2="0.363281" gradientUnits="userSpaceOnUse">
<stop stop-color="#F9F9F9"/>
<stop offset="1" stop-color="white"/>
</linearGradient>
<clipPath id="clip0_4237_2633">
<rect width="35" height="35.2734" fill="white" transform="translate(0.5 0.363281)"/>
</clipPath>
</defs>
</svg>
